# xmcd
#
# Track frame offsets: 
#        150
#        16198
#        30554
#        54603
#        72370
#        90675
#        111105
#        133899
#        145963
#        162596
#        190789
#        216901
#        236099
#        254839
#        278783
#        299202
#
# Disc length: 4194 seconds
#
# Revision: 1
# Processed by: cddbd v1.5.2PL0 Copyright (c) Steve Scherf et al.
# Submitted via: ExactAudioCopy v1.0b3
#
DISCID=04106010
DTITLE=Мельница - The Best
DYEAR=2007
DGENRE=Country
TTITLE0=На Север
TTITLE1=Дорога сна
TTITLE2=Господин горных дорог
TTITLE3=Травушка
TTITLE4=Ночная кобыла
TTITLE5=Чужой
TTITLE6=Огонь
TTITLE7=Рапунцель
TTITLE8=Ворожи
TTITLE9=Прялка
TTITLE10=Оборотень
TTITLE11=Полнолуние
TTITLE12=Мора
TTITLE13=Королевна
TTITLE14=Невеста Полоза
TTITLE15=Горец
EXTD=
EXTT0=
EXTT1=
EXTT2=
EXTT3=
EXTT4=
EXTT5=
EXTT6=
EXTT7=
EXTT8=
EXTT9=
EXTT10=
EXTT11=
EXTT12=
EXTT13=
EXTT14=
EXTT15=
PLAYORDER=
